<?xml version="1.0"?>
<svg xmlns="http://www.w3.org/2000/svg" height="512px" viewBox="0 0 512 512.00125" width="512px" class=""><g><path d="m501.984375 77.148438-99.929687-35.214844c-4.589844-1.617188-9.679688-.90625-13.652344 1.90625s-6.332032 7.375-6.332032 12.242187v7.652344c-31.824218 7.242187-59.496093 27.824219-79.976562 59.050781l74.546875 26.269532c8.484375 2.988281 15.648437 8.367187 20.855469 15.214843 7.734375-7.21875 17.152344-10.832031 28.703125-11.023437h70.800781c8.285156 0 15-6.714844 15-15v-46.949219c0-6.363281-4.011719-12.035156-10.015625-14.148437zm0 0" data-original="#000000" class="active-path" data-old_color="#000000" fill="#14A64E"/><path d="m67.121094 349.050781c-16.351563-56.816406-8.800782-108.363281 21.839844-149.066406 7.050781-9.367187 15.246093-17.886719 24.421874-25.527344 1.683594-16.984375 6.699219-33.765625 15.957032-45.589843 8.5625-10.933594 19.640625-16.414063 33.8125-16.757813.355468.027344.714844.054687 1.082031.054687h99.929687c8.285157 0 15-6.714843 15-15v-46.949218c0-6.363282-4.015624-12.035156-10.015624-14.148438l-99.929688-35.214844c-4.589844-1.617187-9.679688-.9062495-13.652344 1.90625-3.972656 2.8125-6.332031 7.375-6.332031 12.242188v3.742188c-43.964844 3.90625-81.0625 24.992187-107.941406 61.585937-26.628907 36.25-41.292969 86.164063-41.292969 140.546875 0 67.589844 12.78125 105.742188 24.054688 139.398438 12.816406 38.253906 22.9375 68.46875 7.882812 133.335937l-4.265625 18.390625h92.773437v-15c0-50.179688-8.980468-63.808594-22.566406-84.4375-9.875-14.984375-22.15625-33.636719-30.757812-63.511719zm0 0" data-original="#000000" class="active-path" data-old_color="#000000" fill="#14A64E"/><path d="m212.792969 327.023438c-5.324219-15.476563-6.128907-39.035157 4.683593-54.1875 7.277344-10.207032 19.308594-15.378907 35.75-15.378907h108.460938c8.28125 0 15-6.71875 15-15v-50.960937c0-6.363282-4.015625-12.03125-10.015625-14.148438l-108.460937-38.21875c-4.589844-1.617187-9.679688-.90625-13.652344 1.90625s-6.332032 7.375-6.332032 12.242188v6.484375c-54.371093 3.191406-99.515624 24.015625-125.296874 58.265625-24.75 32.882812-30.621094 75.316406-16.976563 122.726562 7.335937 25.488282 17.773437 41.328125 26.976563 55.308594 14.765624 22.410156 27.515624 41.765625 27.515624 100.9375v15h132.457032l.601562-14.375c2.558594-61.472656-21.75-94.644531-43.191406-123.910156-11.101562-15.148438-21.585938-29.457032-27.519531-46.691406zm0 0" data-original="#000000" class="active-path" data-old_color="#000000" fill="#14A64E"/><path d="m423.054688 328.894531c-11.089844-16.460937-22.9375-34.066406-31.878907-52.496093-7.902343 6.878906-18.214843 11.054687-29.488281 11.054687h-88.675781c1.457031 7.003906 3.21875 14.046875 5.28125 21.113281 7.289062 24.953125 18.835937 46.125 30.003906 66.597656 20.617187 37.796876 38.425781 70.4375 23.023437 117.136719l-6.496093 19.699219h154.34375l.914062-14.023438c2.003907-30.730468-2.644531-60.386718-14.214843-90.667968-9.0625-23.726563-22.265626-47.910156-42.8125-78.414063zm0 0" data-original="#000000" class="active-path" data-old_color="#000000" fill="#14A64E"/></g> </svg>
