<?xml version="1.0"?>
<svg xmlns="http://www.w3.org/2000/svg" xmlns:xlink="http://www.w3.org/1999/xlink" version="1.1" id="Layer_1" x="0px" y="0px" viewBox="0 0 512 512" style="enable-background:new 0 0 512 512;" xml:space="preserve" width="512px" height="512px" class=""><g><g>
	<g>
		<path d="M494.643,375.396c-13.823-13.821-33.259-19.677-53.313-16.427L332.957,100.76c8.348-41.79-7.504-66.496-19.718-78.709    c-15.657-15.659-51.837-37.295-118.221-6.272C161.62,31.387,124.893,58.317,91.605,91.606    c-33.289,33.29-60.218,70.017-75.828,103.413c-31.021,66.383-9.387,102.562,6.272,118.222    c9.844,9.843,27.797,22.047,56.268,22.047c6.85,0,14.321-0.722,22.421-2.339l93.22,39.125l-3.678,8.763    c-10.139,24.158,1.266,52.062,25.424,62.203l35.05,14.71c5.988,2.513,12.205,3.702,18.326,3.702    c18.573,0,36.25-10.955,43.875-29.127l3.677-8.762l42.333,17.767c-3.244,20.047,2.627,39.512,16.428,53.314    c9.607,9.607,24.518,17.354,42.627,17.354c9.56,0,20.012-2.16,31.046-7.345c11.083-5.209,22.246-13.269,32.283-23.304    c10.033-10.033,18.092-21.197,23.306-32.284C519.662,417.135,509.323,390.075,494.643,375.396z M295.432,424.97    c-6.085,14.493-22.829,21.339-37.322,15.253l-35.05-14.71c-14.494-6.083-21.338-22.827-15.254-37.321l3.677-8.763l87.627,36.779    L295.432,424.97z M487.455,440.981c-4.288,9.12-11.047,18.434-19.544,26.929c-8.5,8.5-17.811,15.257-26.928,19.542    c-23.023,10.822-42.033,3.868-52.148-6.247c-3.386-3.387-12.836-14.537-11.656-32.231l35.425,14.868    c1.201,0.503,2.447,0.742,3.673,0.742c3.713,0,7.24-2.191,8.767-5.829c2.031-4.839-0.245-10.409-5.085-12.44l-104.727-43.955    c-0.001,0-0.003-0.001-0.004-0.001s-0.003-0.001-0.004-0.001l-105.139-44.128c-0.004-0.001-0.006-0.003-0.009-0.004    c-0.003-0.001-0.006-0.003-0.01-0.004l-80.841-33.93c3.59-1.437,7.263-3.014,11.046-4.782    c11.756-5.495,24.103-12.496,36.697-20.811c4.38-2.89,5.587-8.786,2.695-13.166c-2.891-4.38-8.786-5.585-13.166-2.695    c-11.823,7.804-23.355,14.349-34.273,19.452c-55.887,26.116-84.595,9.649-96.735-2.49c-12.14-12.141-28.607-40.852-2.492-96.736    c14.696-31.444,40.283-66.255,72.048-98.019C136.81,73.282,171.621,47.695,203.065,33c55.885-26.116,84.595-9.65,96.735,2.492    c12.14,12.139,28.607,40.848,2.492,96.733c-5.104,10.92-11.65,22.453-19.455,34.275c-2.891,4.38-1.685,10.275,2.695,13.166    c4.38,2.893,10.274,1.684,13.166-2.695c8.313-12.592,15.315-24.94,20.811-36.699c1.765-3.777,3.352-7.452,4.786-11.035    l122.021,290.723c0.12,0.288,0.255,0.566,0.402,0.84c0.55,1.017,1.272,3.149-0.06,6.001c-1.642,3.512-4.725,7.671-8.458,11.404    c-3.71,3.713-3.71,9.729,0.001,13.439c1.856,1.856,4.288,2.783,6.719,2.783c2.432,0,4.864-0.927,6.721-2.784    c5.31-5.313,9.656-11.277,12.235-16.795c4.818-10.308,1.676-18.945-0.19-22.611l-14.712-35.054    c17.68-1.181,28.828,8.253,32.23,11.653C491.32,398.951,498.274,417.961,487.455,440.981z" data-original="#000000" class="active-path" data-old_color="#000000" fill="#FFFFFF"/>
	</g>
</g><g>
	<g>
		<path d="M283.481,51.808c-9.285-9.285-28.537-16.717-67.523,0.611c-4.796,2.133-6.956,7.748-4.824,12.544    c2.133,4.795,7.75,6.958,12.544,4.824c22.065-9.809,39.396-11.505,46.364-4.539c13.734,13.734-6.064,71.846-69.505,135.288    c-50.831,50.829-98.235,73.643-122.14,73.641c-5.931-0.001-10.418-1.405-13.149-4.137c-6.966-6.965-5.269-24.298,4.54-46.364    c2.133-4.795-0.028-10.412-4.824-12.543c-4.798-2.135-10.413,0.029-12.544,4.825c-17.329,38.984-9.897,58.237-0.611,67.523    c6.792,6.792,15.915,9.838,26.622,9.838c36.732-0.004,92.065-35.862,135.545-79.341    C270.129,157.821,313.573,81.902,283.481,51.808z" data-original="#000000" class="active-path" data-old_color="#000000" fill="#FFFFFF"/>
	</g>
</g></g> </svg>
